<svg xmlns="http://www.w3.org/2000/svg" viewBox="0 0 306.7 41.1"><path d="M98.3 6.8H89v.1c.3.5.5 1.2.5 1.9 0 1.1-.7 3.1-.9 4l-5.9 17c-.8 2.2-.9 2.8-2.3 4.9v.1h7.7v-.1c-.4-.7-.6-1.3-.6-2 0-1.1.5-2.6.8-3.4l.4-1.2h8.4s.5 1.5.9 2.4c.3.8.4 1.6.4 2.1 0 .6-.1 1.1-.4 2.1v.1h11.2v-.1c-1.2-1.5-1.8-3.2-2.8-6L98.3 6.8zm-8.1 16.7l2.6-7.8 2.7 7.8h-5.3zm-14.6 5.1c0 2.5.2 4.8 1 6.1v.1h-11v-.1c1.1-1.9.9-3.8.9-6V23L65 20.1l-5.3-9.9c-.7-1.4-1.3-2.3-2.4-3.3v-.1h9.6v.1l5.7 11.6 1.6-3.2 1.6-3.2c.5-.9 1-2.2 1-3.2s-.3-1.5-.6-1.9v-.2h7.6v.1l-7.7 15.2-.6 1.1.1 5.4zm55.3 6.2h-19.7v-.1c.8-1.8.9-3.3.9-6V12.9c0-3.3-.3-4.6-.9-5.9v-.1h10.7V7c-.7 1.9-.8 3-.8 6v16.1c1.2.2 2.6.4 4.1.4 3.2 0 4.9-.3 6.1-.8h.3l-.7 6.1zM44.3 6.1c-8.7 0-14.7 5.4-14.7 13 0 11.1 11.8 12.7 15.9 9.1l-.7-1.4c-3.6.7-6.8-2-6.8-8.1 0-4.9 2.6-8 6.2-8 4.2 0 6.8 4.2 6.8 10.3 0 6.9-4 12.1-11.4 12.1-8.5 0-14.9-6.7-18.9-13.4 4.4-1.7 7-5 7-9.5 0-5.8-4.4-9.9-12.3-9.9H.4v.1c.6 1.3.9 3.7.9 7v21.3c0 2.7-.1 4.2-.9 6v.1h11.1v-.1c-.7-1.7-.9-4-.9-6v-5.9H12c7.7 11.3 16.5 16 25.9 16 13.6 0 21.6-8.6 21.6-18.1 0-8.1-6.1-14.6-15.2-14.6zM10.7 18.3V5.6h3.1c3.6 0 5.1 2.1 5.1 5.5 0 4.1-2.4 7.3-6.3 7.3-.6-.1-1.7-.1-1.9-.1zM197.2 6.9c-.6 1.3-.9 2.7-.9 5.9v17.4c.1 1.8.2 3 .9 4.4v.1h-6.5c-1.4-.6-2.9-2.3-4.9-4.4-1.6-1.7-9.1-10.4-9.1-10.4h-.1v8.3c-2.2.2-4.8.8-6.8 1.3V12.7c0-3.3-.3-4.6-.9-5.9v-.1h7.9l12.7 15.4v-9.2c0-3.3-.3-4.6-.9-5.9v-.1h8.6zm-13.1 27.9c-11.1.1-13.7 6.1-27.8 6.1-6.8 0-12.8-1.8-12.8-1.8V39c.8-1.8.9-3.2.9-5.9V7.4c0-3.3-.3-5.7-.9-7V.3h22.7l.7 6.3c-1.7-.7-3.8-.9-6.8-.9h-6v10.9h2.9c4.5 0 7.1-.3 7.8-.5h.2v6.6h-.1c-.9-.3-4-.6-7.7-.6h-3V33s3.5.8 6.7.8c8.4 0 12-3 20.3-3h.7c1.6 1.9 3 3.4 3.6 4h-1.4zm48.3-21.9v15.9c0 2.7.1 4.2.9 6v.1h-10.8v-.1c.8-1.8.9-3.3.9-6V12.9c0-3.3-.3-4.6-.9-5.9v-.1h10.8V7c-.6 1.3-.9 2.6-.9 5.9zM210.7 19h.8c4 0 5.3-.3 5.9-.4h.2v5.8h-.2c-.8-.3-2.5-.6-5.8-.6h-.9v4.8c0 2.8.1 4.7 1 6.1v.1h-10.9v-.1c.8-1.8.9-3.3.9-6V12.9c0-3.3-.3-4.6-.9-5.9v-.1h18.6l.7 5.7h-.1c-1.3-.6-3-.9-5.7-.9h-3.6V19zm46.2 10l-.7 5.8H237v-.1c.8-1.8.9-3.3.9-6V12.9c0-3.3-.3-4.6-.9-5.9v-.1h18.6l.7 5.7h-.1c-1.3-.6-3-.9-5.7-.9h-3.6v6.4h.7c4 0 5.3-.3 5.9-.4h.2v5.8h-.2c-.8-.3-2.5-.6-5.8-.6h-.9v6.6c1.3.2 2.2.3 3.7.3 3.4 0 4.6-.2 6-.8h.4zm49.5-7.3c0 9.6-7 17.1-18.8 17.1-9.1 0-12-4-23.3-4h-4.7v-.1c.8-1.8.9-3.3.9-6V12.8c0-3.3-.3-4.6-.9-5.9v-.1h10.8v.1c-.6 1.3-.9 3.4-.9 6v17c6.7 0 9.7 2 15.6 2 8.2 0 12.2-4.5 12.2-10.9 0-5.5-2.8-9.6-7.7-9.6h-3.2v17.3c-3 .1-6.5-.3-9-1.2V12.8c0-3.3-.3-4.6-.9-5.9v-.1h12.7c10.5 0 17.2 6.5 17.2 14.9z" fill="#da291c"/></svg>